<?xml version="1.0" encoding="utf-8"?>
<!-- Generator: Adobe Illustrator 16.0.0, SVG Export Plug-In . SVG Version: 6.00 Build 0)  -->
<!DOCTYPE svg PUBLIC "-//W3C//DTD SVG 1.1//EN" "http://www.w3.org/Graphics/SVG/1.1/DTD/svg11.dtd">
<svg version="1.1" id="Capa_1" xmlns="http://www.w3.org/2000/svg" xmlns:xlink="http://www.w3.org/1999/xlink" x="0px" y="0px"
	 width="400px" height="400px" viewBox="0 0 400 400" enable-background="new 0 0 400 400" xml:space="preserve">
<g>
	<g>
		<path fill="#1DE9B6" d="M54.787,353.981l-0.072-0.055c-3.425-2.623-8.328-1.975-10.953,1.451
			c-2.624,3.425-1.974,8.329,1.451,10.953l0.072,0.055c1.417,1.086,3.088,1.611,4.746,1.611c2.348,0,4.669-1.055,6.207-3.063
			C58.862,361.509,58.212,356.605,54.787,353.981z"/>
	</g>
</g>
<g>
	<g>
		<path fill="#1DE9B6" d="M54.787,289.919l-0.072-0.055c-3.425-2.623-8.328-1.975-10.953,1.451
			c-2.624,3.425-1.974,8.329,1.451,10.953l0.072,0.055c1.417,1.086,3.088,1.611,4.746,1.611c2.348,0,4.669-1.055,6.207-3.063
			C58.862,297.446,58.212,292.543,54.787,289.919z"/>
	</g>
</g>
<g>
	<g>
		<path fill="#1DE9B6" d="M54.787,225.856l-0.072-0.055c-3.425-2.623-8.328-1.975-10.953,1.451
			c-2.624,3.425-1.974,8.329,1.451,10.953l0.072,0.055c1.417,1.086,3.088,1.611,4.746,1.611c2.348,0,4.669-1.055,6.207-3.063
			C58.862,233.384,58.212,228.48,54.787,225.856z"/>
	</g>
</g>
<g>
	<g>
		<path fill="#1DE9B6" d="M354.719,353.957l-0.072-0.055c-3.439-2.606-8.34-1.932-10.945,1.508
			c-2.606,3.438-1.932,8.339,1.508,10.945l0.072,0.055c1.412,1.069,3.068,1.587,4.713,1.587c2.361,0,4.695-1.066,6.232-3.094
			C358.833,361.464,358.157,356.563,354.719,353.957z"/>
	</g>
</g>
<g>
	<g>
		<path fill="#1DE9B6" d="M354.719,289.896l-0.072-0.055c-3.439-2.606-8.34-1.932-10.945,1.508
			c-2.605,3.438-1.931,8.338,1.508,10.944l0.072,0.055c1.412,1.069,3.068,1.587,4.713,1.587c2.361,0,4.695-1.066,6.232-3.094
			C358.833,297.402,358.158,292.502,354.719,289.896z"/>
	</g>
</g>
<g>
	<g>
		<path fill="#1DE9B6" d="M354.719,225.833l-0.072-0.055c-3.439-2.606-8.34-1.932-10.945,1.508
			c-2.606,3.438-1.931,8.338,1.508,10.944l0.072,0.055c1.412,1.069,3.068,1.587,4.713,1.587c2.361,0,4.695-1.066,6.232-3.094
			C358.833,233.34,358.158,228.439,354.719,225.833z"/>
	</g>
</g>
<g>
	<g>
		<path fill="#1DE9B6" d="M288.65,256.25h-0.102c-4.314,0-7.813,3.498-7.813,7.813s3.497,7.813,7.813,7.813h0.102
			c4.313,0,7.813-3.498,7.813-7.813S292.964,256.25,288.65,256.25z"/>
	</g>
</g>
<g>
	<g>
		<path fill="#1DE9B6" d="M111.452,320.313h-0.102c-4.314,0-7.813,3.498-7.813,7.813s3.499,7.813,7.813,7.813h0.102
			c4.314,0,7.813-3.498,7.813-7.813S115.767,320.313,111.452,320.313z"/>
	</g>
</g>
<g>
	<g>
		<path fill="#1DE9B6" d="M63.117,144.68c-1.453-1.453-3.469-2.289-5.523-2.289s-4.07,0.836-5.523,2.289
			c-1.452,1.453-2.289,3.469-2.289,5.531c0,2.055,0.836,4.063,2.289,5.516c1.453,1.461,3.462,2.289,5.523,2.289
			c2.055,0,4.07-0.828,5.523-2.289c1.452-1.453,2.289-3.461,2.289-5.516C65.406,148.148,64.57,146.141,63.117,144.68z"/>
	</g>
</g>
<g>
	<g>
		<path fill="#1DE9B6" d="M392.188,192.188h-32.448c13.962-8.031,23.392-23.091,23.392-40.321c0-17.887-10.148-33.81-25.609-41.558
			c2.667-5.93,4.051-12.37,4.051-19.022c0-25.636-20.856-46.493-46.493-46.493c-8.083,0-15.846,2.039-22.764,5.941
			c-9.076-6.397-19.931-9.865-31.136-9.865c-0.76,0-1.514,0.027-2.268,0.058c-8.254-24.061-31.27-40.891-57.191-40.891
			c-23.375,0-44.526,13.538-54.492,34.283c-1.87-0.173-3.748-0.261-5.625-0.261c-24.566,0-46.385,14.835-55.701,36.956
			c-1.653-0.505-3.335-0.945-5.042-1.327c0.895-9.985,4.063-17.64,9.466-22.787c4.707-4.483,9.435-5.412,9.634-5.45l-0.108,0.018
			l-0.001-0.009c1.651-0.243,3.215-1.005,4.401-2.197c1.452-1.453,2.289-3.461,2.289-5.516c0-2.063-0.836-4.07-2.289-5.531
			c-1.453-1.453-3.469-2.289-5.523-2.289c-0.438,0-0.874,0.046-1.303,0.12l-0.002-0.014c-4.639,0.73-10.983,3.331-16.835,8.613
			V7.813C80.59,3.498,77.091,0,72.777,0h-18.75c-4.314,0-7.813,3.498-7.813,7.813v29.212c-8.987-11.015-18.69-17.454-19.442-17.945
			c-3.608-2.354-8.435-1.337-10.795,2.266c-2.361,3.604-1.353,8.444,2.246,10.812c0.258,0.169,23.895,15.998,27.407,38.767
			C19.194,78.866,0,102.101,0,129.464c0,11.369,6.483,38.667,12.847,62.724H7.813C3.499,192.188,0,195.685,0,200v192.188
			C0,396.502,3.499,400,7.813,400h384.375c4.314,0,7.813-3.498,7.813-7.813V200C400,195.685,396.502,192.188,392.188,192.188z
			 M141.604,49.685c3.006,0,6.015,0.301,8.947,0.895c3.815,0.771,7.616-1.381,8.915-5.051c6.323-17.863,23.303-29.866,42.254-29.866
			c18.469,0,34.951,11.515,41.641,28.236c-21.102,7.384-36.285,27.483-36.285,51.073c0,4.315,3.499,7.813,7.813,7.813
			c4.314,0,7.813-3.498,7.813-7.813c0-21.216,17.262-38.477,38.478-38.477c9.409,0,18.47,3.44,25.512,9.687
			c2.777,2.463,6.906,2.631,9.875,0.403c5.373-4.034,11.774-6.166,18.512-6.166c17.021,0,30.868,13.848,30.868,30.868
			c0,6.691-2.105,13.058-6.091,18.41c-1.558,2.093-1.969,4.826-1.093,7.285c0.876,2.458,2.92,4.318,5.451,4.956
			c13.714,3.458,23.292,15.765,23.292,29.929c0,17.021-13.848,30.868-30.868,30.868c-1.939,0-3.908-0.189-5.853-0.562
			c-3.786-0.729-7.536,1.418-8.831,5.05c-0.611,1.716-1.386,3.378-2.296,4.965h-9.862l31.991-45.859
			c1.202-1.724,1.659-3.859,1.268-5.924s-1.599-3.885-3.348-5.049l-22.777-15.158c-1.774-1.181-3.955-1.586-6.034-1.12
			c-2.08,0.465-3.88,1.76-4.981,3.585l-11.39,18.859l9.323-47.163c0.831-4.21-1.888-8.303-6.091-9.167l-19.879-4.088
			c-2.054-0.424-4.192-0.002-5.934,1.168c-1.74,1.17-2.938,2.992-3.32,5.053l-2.551,13.699H247.84c-4.314,0-7.813,3.498-7.813,7.813
			v44.956c-5.192-26.585-28.65-46.714-56.732-46.714c-12.654,0-24.673,4.015-34.755,11.611
			c-8.315,6.263-14.846,14.789-18.775,24.373c0.996-5.867,1.486-10.367,1.486-13.597c0-10.595-2.877-20.572-7.938-29.283
			c4.104-11.168,14.775-18.755,26.846-18.755c1.918,0,3.84,0.193,5.713,0.573c3.818,0.776,7.625-1.382,8.92-5.056
			c1.677-4.749,4.594-8.996,8.438-12.284c3.278-2.805,3.663-7.737,0.858-11.016c-2.804-3.279-7.735-3.663-11.016-0.858
			c-4.292,3.672-7.836,8.123-10.448,13.085c-0.821-0.046-1.644-0.069-2.465-0.069c-15.55,0-29.597,8.141-37.522,20.837
			c-3.711-3.572-7.876-6.725-12.415-9.373C107.083,60.765,123.317,49.685,141.604,49.685z M285.643,186.449l29.426-48.723
			l9.334,6.212l-33.658,48.249h-6.236L285.643,186.449z M275.869,155.31v-21.693c0.042-0.164,0.087-0.327,0.118-0.495l6.538-35.113
			l4.488,0.923L275.869,155.31z M255.596,178.635c0.034-0.296,0.057-0.596,0.057-0.901v-61.087h4.593v75.54h-2.466
			c0.021-0.489,0.033-0.979,0.033-1.47C257.813,186.458,257.021,182.387,255.596,178.635z M148.438,142.188
			c-0.231,0-0.458,0.015-0.69,0.017c7.638-11.859,21.023-19.502,35.547-19.502c20.642,0,37.858,14.907,41.477,34.519
			c-10.811,0.077-20.391,5.516-26.318,13.839C188.437,153.816,169.776,142.188,148.438,142.188z M189.888,192.188h-81.672h-1.229
			c3.676-19.541,20.859-34.375,41.451-34.375C169.03,157.813,186.212,172.647,189.888,192.188z M225,172.841
			c9.478,0,17.188,8.02,17.188,17.876c0,0.493-0.023,0.983-0.062,1.47h-34.253c-0.038-0.487-0.062-0.978-0.062-1.47
			C207.813,180.86,215.522,172.841,225,172.841z M61.84,15.625h3.125v52.388c-1.048,0.01-2.09,0.039-3.125,0.094V15.625z
			 M16.091,123.289c0.488,0.095,0.991,0.148,1.505,0.148H56.22c4.314,0,7.813-3.498,7.813-7.813s-3.499-7.813-7.813-7.813H21.567
			c8.445-14.387,25.024-24.19,44.058-24.19c27.57,0,50,20.564,50,45.841c0,2.039-0.326,5.799-1.567,12.724h-31.03
			c-4.314,0-7.813,3.498-7.813,7.813s3.499,7.813,7.813,7.813h25.942c-9.479,8.874-15.971,20.891-17.802,34.375H29.017
			c-8.535-31.864-13.392-54.569-13.392-62.724C15.625,127.37,15.793,125.311,16.091,123.289z M384.375,256.25h-68.75
			c-4.314,0-7.813,3.498-7.813,7.813s3.498,7.813,7.813,7.813h68.75v48.438H137.974c-4.314,0-7.813,3.498-7.813,7.813
			s3.498,7.813,7.813,7.813h246.401v48.438H15.625v-48.438h68.75c4.314,0,7.813-3.498,7.813-7.813s-3.499-7.813-7.813-7.813h-68.75
			v-48.438h246.401c4.314,0,7.813-3.498,7.813-7.813s-3.498-7.813-7.813-7.813H15.625v-48.438h7.409h361.341V256.25z"/>
	</g>
</g>
<g>
	<g>
		<path fill="#1DE9B6" d="M191.77,42.188h-0.103c-4.314,0-7.813,3.498-7.813,7.813s3.499,7.813,7.813,7.813h0.103
			c4.314,0,7.813-3.498,7.813-7.813S196.083,42.188,191.77,42.188z"/>
	</g>
</g>
</svg>
