<?xml version="1.0" encoding="utf-8"?>
<!-- Generator: Adobe Illustrator 16.0.0, SVG Export Plug-In . SVG Version: 6.00 Build 0)  -->
<!DOCTYPE svg PUBLIC "-//W3C//DTD SVG 1.1//EN" "http://www.w3.org/Graphics/SVG/1.1/DTD/svg11.dtd">
<svg version="1.1" id="Layer_1" xmlns="http://www.w3.org/2000/svg" xmlns:xlink="http://www.w3.org/1999/xlink" x="0px" y="0px"
	 width="400px" height="400px" viewBox="0 0 400 400" enable-background="new 0 0 400 400" xml:space="preserve">
<g>
	<g>
		<g>
			<path fill="#1DE9B6" d="M358.337,167.375v-9.04c0-13.785-11.214-25-25-25H250V91.666c0-4.602-3.73-8.333-8.334-8.333h-25V58.336
				c0-4.603-3.731-8.333-8.334-8.333H95.124L80.895,35.773c-3.253-3.254-8.53-3.254-11.784,0L21.549,83.332H8.333
				C3.731,83.333,0,87.063,0,91.666V325c0,4.602,3.731,8.334,8.333,8.334h34.171c1.254,6.154,3.87,11.819,7.517,16.666H33.333
				C28.73,350,25,353.732,25,358.334s3.73,8.333,8.333,8.333h49.998c0.021,0,0.041-0.003,0.062-0.003
				c20.094-0.029,36.899-14.354,40.766-33.33h117.507h34.178c1.254,6.155,3.871,11.82,7.518,16.667h-16.689
				c-4.602,0-8.334,3.731-8.334,8.333c0,4.603,3.731,8.334,8.334,8.334h49.998c0.021,0,0.041-0.003,0.063-0.003
				c20.094-0.029,36.898-14.354,40.766-33.33h34.168c4.603,0,8.334-3.731,8.334-8.333v-75.001v-33.335
				C400,191.937,381.95,171.356,358.337,167.375z M199.999,66.669v16.664h-71.543l-16.664-16.664H199.999z M75.002,53.451
				l10.772,10.771c0.004,0.004,0.008,0.009,0.012,0.013l19.099,19.099H45.12L75.002,53.451z M83.333,349.998
				c-13.786,0-25.001-11.214-25.001-24.998c0-13.786,11.215-25.002,25.001-25.002c13.784,0,24.998,11.216,24.998,25.002
				C108.331,338.784,97.116,349.998,83.333,349.998z M233.333,141.669v141.665h-56.674c-4.603,0-8.333,3.731-8.333,8.334
				s3.73,8.334,8.333,8.334h56.674v16.666H124.159c-3.871-18.997-20.705-33.334-40.826-33.334s-36.958,14.338-40.829,33.334H16.667
				V183.334h33.332c4.602,0,8.333-3.73,8.333-8.333c0-4.603-3.731-8.334-8.333-8.334H16.667v-16.666h99.998
				c4.603,0,8.333-3.73,8.333-8.333c0-4.603-3.73-8.333-8.333-8.333H16.667V99.998h8.328c0.004,0,0.009,0,0.013,0h208.325V141.669
				L233.333,141.669z M275.844,316.667H250v-16.666h33.36C279.713,304.849,277.097,310.513,275.844,316.667z M341.67,325.027
				c-0.016,13.772-11.224,24.971-24.999,24.971c-13.785,0-25.001-11.214-25.001-24.998c0-13.765,11.181-24.965,24.938-25h0.063
				c0.008,0,0.015-0.001,0.021-0.001c13.767,0.011,24.963,11.208,24.979,24.975c0,0.009-0.001,0.017-0.001,0.026
				S341.67,325.018,341.67,325.027z M383.334,316.667h-25.836c-3.871-18.997-20.706-33.334-40.827-33.334
				c-0.021,0-0.043,0.001-0.063,0.001h-66.608V150.002h83.338c4.595,0,8.333,3.738,8.333,8.333v8.333h-58.332
				c-4.602,0-8.334,3.73-8.334,8.333v74.999c0,4.603,3.731,8.333,8.334,8.333h99.996V316.667z M308.338,183.334v58.332h-16.667
				v-58.332H308.338z M383.334,241.666h-58.329v-58.332h24.999c18.378,0,33.33,14.952,33.33,33.331V241.666L383.334,241.666z"/>
			<path fill="#1DE9B6" d="M144.06,300.001h5.202c4.602,0,8.333-3.731,8.333-8.334s-3.731-8.333-8.333-8.333h-5.202
				c-4.602,0-8.333,3.73-8.333,8.333S139.458,300.001,144.06,300.001z"/>
			<path fill="#1DE9B6" d="M144.06,150.002h5.202c4.602,0,8.333-3.73,8.333-8.333c0-4.603-3.731-8.334-8.333-8.334h-5.202
				c-4.602,0-8.333,3.73-8.333,8.334C135.728,146.271,139.458,150.002,144.06,150.002z"/>
		</g>
	</g>
</g>
</svg>
