<?xml version="1.0" encoding="utf-8"?>
<!-- Generator: Adobe Illustrator 16.0.0, SVG Export Plug-In . SVG Version: 6.00 Build 0)  -->
<!DOCTYPE svg PUBLIC "-//W3C//DTD SVG 1.1//EN" "http://www.w3.org/Graphics/SVG/1.1/DTD/svg11.dtd">
<svg version="1.1" id="Capa_1" xmlns="http://www.w3.org/2000/svg" xmlns:xlink="http://www.w3.org/1999/xlink" x="0px" y="0px"
	 width="400px" height="400px" viewBox="0 0 400 400" enable-background="new 0 0 400 400" xml:space="preserve">
<g>
	<g>
		<g>
			<path fill="#1DE9B6" d="M121.203,296.234l-18.924,16.754c6.025,6.779,12.572,13.078,19.58,18.836l15.997-19.555
				C131.889,307.373,126.321,302.012,121.203,296.234z"/>
			<path fill="#1DE9B6" d="M96.336,257.2l-23.188,9.954c3.585,8.355,7.843,16.404,12.729,24.071l21.284-13.524
				C103.01,271.168,99.39,264.313,96.336,257.2z"/>
			<path fill="#1DE9B6" d="M315.083,52.643c-25.942-15.041-55.396-22.966-85.382-22.974
				C144.413,29.806,72.356,92.968,61.049,177.504l-43.21-43.21L0,152.133l72,72l72-72l-17.839-17.839l-39.021,38.971
				c14.826-78.66,90.612-130.406,169.271-115.58c78.66,14.826,130.407,90.612,115.58,169.271
				c-14.826,78.659-90.611,130.407-169.271,115.58c-16.124-3.039-31.615-8.794-45.813-17.021l-12.679,21.813
				c81.375,47.181,185.59,19.46,232.771-61.915S396.458,99.823,315.083,52.643z"/>
			<polygon fill="#1DE9B6" points="210.777,86.441 210.777,225.219 266.287,266.852 281.427,246.666 236.01,212.603 236.01,86.441 
							"/>
		</g>
	</g>
</g>
</svg>
