<?xml version="1.0" encoding="utf-8"?>
<!-- Generator: Adobe Illustrator 16.0.0, SVG Export Plug-In . SVG Version: 6.00 Build 0)  -->
<!DOCTYPE svg PUBLIC "-//W3C//DTD SVG 1.1//EN" "http://www.w3.org/Graphics/SVG/1.1/DTD/svg11.dtd">
<svg version="1.1" id="Capa_1" xmlns="http://www.w3.org/2000/svg" xmlns:xlink="http://www.w3.org/1999/xlink" x="0px" y="0px"
	 width="400px" height="400px" viewBox="0 0 400 400" enable-background="new 0 0 400 400" xml:space="preserve">
<g>
	<g>
		<path fill="#1DE9B6" d="M198.55,215.531c0.414,0,0.829,0,1.326,0c0.166,0,0.331,0,0.497,0c0.249,0,0.581,0,0.829,0
			c24.27-0.414,43.901-8.946,58.396-25.264c31.891-35.949,26.59-97.577,26.01-103.458c-2.07-44.15-22.944-65.272-40.174-75.129
			C232.595,4.307,217.602,0.332,200.869,0h-0.579c-0.083,0-0.249,0-0.332,0h-0.497c-9.194,0-27.252,1.491-44.564,11.348
			c-17.395,9.857-38.6,30.979-40.671,75.461c-0.58,5.881-5.881,67.509,26.009,103.458
			C154.649,206.585,174.28,215.117,198.55,215.531z M136.343,88.88c0-0.249,0.083-0.497,0.083-0.663
			c2.733-59.391,44.896-65.769,62.953-65.769h0.331c0.166,0,0.414,0,0.663,0c22.366,0.497,60.385,9.608,62.954,65.769
			c0,0.249,0,0.497,0.082,0.663c0.083,0.58,5.881,56.906-20.459,86.56c-10.438,11.762-24.354,17.561-42.659,17.727
			c-0.166,0-0.249,0-0.414,0l0,0c-0.166,0-0.249,0-0.415,0c-18.223-0.166-32.222-5.964-42.576-17.727
			C130.627,145.952,136.26,89.376,136.343,88.88z"/>
		<path fill="#1DE9B6" d="M370.098,317.747c0-0.083,0-0.166,0-0.249c0-0.662-0.083-1.324-0.083-2.07
			c-0.497-16.4-1.574-54.752-37.523-67.012c-0.248-0.083-0.58-0.166-0.828-0.248c-37.358-9.526-68.421-31.063-68.751-31.312
			c-5.053-3.562-12.012-2.319-15.573,2.733s-2.319,12.011,2.733,15.572c1.408,0.994,34.376,23.939,75.627,34.542
			c19.3,6.875,21.453,27.501,22.033,46.386c0,0.746,0,1.408,0.083,2.071c0.083,7.455-0.414,18.969-1.739,25.595
			c-13.419,7.621-66.018,33.962-146.035,33.962c-79.686,0-132.616-26.423-146.117-34.044c-1.325-6.627-1.905-18.141-1.74-25.596
			c0-0.662,0.083-1.325,0.083-2.07c0.58-18.887,2.733-39.512,22.034-46.387c41.25-10.603,74.218-33.631,75.626-34.541
			c5.053-3.563,6.295-10.52,2.733-15.572c-3.562-5.054-10.52-6.296-15.573-2.734c-0.331,0.248-31.228,21.785-68.751,31.311
			c-0.331,0.084-0.58,0.166-0.828,0.249c-35.949,12.343-37.026,50.694-37.523,67.012c0,0.745,0,1.408-0.083,2.071
			c0,0.082,0,0.165,0,0.248c-0.083,4.308-0.166,26.424,4.224,37.523c0.829,2.153,2.319,3.977,4.308,5.219
			C40.919,362.063,100.477,400,200.125,400s159.205-38.021,161.69-39.594c1.904-1.242,3.479-3.065,4.307-5.219
			C370.263,344.17,370.18,322.055,370.098,317.747z"/>
	</g>
</g>
</svg>
