<?xml version="1.0" encoding="utf-8"?>
<!-- Generator: Adobe Illustrator 16.0.0, SVG Export Plug-In . SVG Version: 6.00 Build 0)  -->
<!DOCTYPE svg PUBLIC "-//W3C//DTD SVG 1.1//EN" "http://www.w3.org/Graphics/SVG/1.1/DTD/svg11.dtd">
<svg version="1.1" id="Layer_1" xmlns="http://www.w3.org/2000/svg" xmlns:xlink="http://www.w3.org/1999/xlink" x="0px" y="0px"
	 width="400px" height="400px" viewBox="0 0 400 400" enable-background="new 0 0 400 400" xml:space="preserve">
<g>
	<path fill="#1DE9B6" d="M234.753,67.084c-22.394-22.393-52.166-34.726-83.834-34.726S89.478,44.691,67.085,67.084
		s-34.726,52.167-34.726,83.835c0,31.669,12.333,61.442,34.726,83.834s52.167,34.726,83.834,34.726
		c31.669,0,61.44-12.332,83.834-34.726s34.726-52.167,34.726-83.834C269.479,119.25,257.146,89.477,234.753,67.084L234.753,67.084z
		 M223.594,223.594c-19.412,19.411-45.223,30.104-72.675,30.104s-53.263-10.69-72.675-30.104
		c-40.072-40.073-40.072-105.277,0-145.35c19.412-19.412,45.222-30.103,72.675-30.103s53.263,10.69,72.675,30.103
		C263.666,118.316,263.666,183.521,223.594,223.594z"/>
	<path fill="#1DE9B6" d="M198.909,71.871c-3.724-2.264-8.578-1.082-10.843,2.642c-2.264,3.724-1.082,8.579,2.642,10.843
		c5.214,3.17,10.065,6.988,14.426,11.347c1.54,1.542,3.562,2.312,5.579,2.312c2.02,0,4.04-0.77,5.58-2.312
		c3.082-3.082,3.082-8.078,0-11.16C211.046,80.294,205.197,75.694,198.909,71.871z"/>
	<path fill="#1DE9B6" d="M91.123,99.014c2.019,0,4.04-0.77,5.58-2.312c17.245-17.246,41.951-25.297,66.082-21.539
		c4.309,0.671,8.341-2.277,9.012-6.583c0.67-4.307-2.277-8.341-6.583-9.012c-29.094-4.529-58.876,5.18-79.67,25.975
		c-3.082,3.082-3.082,8.078,0,11.16C87.083,98.244,89.104,99.014,91.123,99.014z"/>
	<path fill="#1DE9B6" d="M110.408,216.037c-4.938-3.078-9.548-6.746-13.706-10.903c-3.082-3.082-8.079-3.082-11.16,0
		c-3.082,3.081-3.082,8.077,0,11.159c5.004,5.004,10.561,9.425,16.516,13.137c1.298,0.812,2.742,1.195,4.167,1.195
		c2.634,0,5.208-1.318,6.705-3.717C115.236,223.211,114.106,218.344,110.408,216.037z"/>
	<path fill="#1DE9B6" d="M205.135,205.134c-16.719,16.72-39.792,24.71-63.305,21.921c-4.328-0.517-8.253,2.578-8.766,6.906
		c-0.514,4.327,2.579,8.252,6.907,8.766c3.714,0.44,7.415,0.657,11.094,0.657c24.403,0,47.709-9.571,65.23-27.091
		c3.081-3.082,3.081-8.078,0-11.16C213.213,202.053,208.217,202.053,205.135,205.134L205.135,205.134z"/>
	<path fill="#1DE9B6" d="M390.42,344.091l-95.506-95.505c-3.081-3.082-8.078-3.082-11.158,0l-3.82,3.82l-9.373-9.371
		c45.62-59.167,41.329-144.674-12.879-198.882c-58.87-58.871-154.66-58.871-213.53,0c-58.871,58.87-58.871,154.66,0,213.531
		c29.435,29.436,68.101,44.152,106.766,44.152c32.539,0,65.079-10.426,92.116-31.273l9.372,9.371l-3.82,3.82
		c-1.48,1.479-2.313,3.487-2.313,5.58s0.832,4.102,2.313,5.58l95.505,95.505c6.387,6.387,14.775,9.579,23.165,9.579
		c8.388,0,16.778-3.193,23.165-9.579C403.193,377.646,403.193,356.865,390.42,344.091L390.42,344.091z M55.313,246.523
		c-25.538-25.537-39.601-59.491-39.601-95.605c0-36.114,14.064-70.068,39.601-95.605c25.538-25.537,59.491-39.601,95.605-39.601
		c36.114,0,70.068,14.064,95.605,39.601c25.537,25.538,39.603,59.491,39.603,95.605c0,36.114-14.063,70.068-39.603,95.605
		c-25.537,25.537-59.49,39.602-95.604,39.602C114.805,286.125,80.85,272.061,55.313,246.523L55.313,246.523z M255.047,260.254
		c0.887-0.844,1.766-1.699,2.637-2.57c0.869-0.871,1.728-1.752,2.57-2.637l8.521,8.52l-5.209,5.209L255.047,260.254z
		 M379.261,379.26c-6.621,6.619-17.39,6.619-24.009,0l-89.926-89.925l24.009-24.009l89.926,89.926
		C385.88,361.871,385.88,372.641,379.261,379.26z"/>
</g>
</svg>
