<?xml version="1.0" encoding="utf-8"?>
<!-- Generator: Adobe Illustrator 16.0.0, SVG Export Plug-In . SVG Version: 6.00 Build 0)  -->
<!DOCTYPE svg PUBLIC "-//W3C//DTD SVG 1.1//EN" "http://www.w3.org/Graphics/SVG/1.1/DTD/svg11.dtd">
<svg version="1.1" id="Capa_1" xmlns="http://www.w3.org/2000/svg" xmlns:xlink="http://www.w3.org/1999/xlink" x="0px" y="0px"
	 width="400px" height="400px" viewBox="0 0 400 400" enable-background="new 0 0 400 400" xml:space="preserve">
<path fill="#1DE9B6" d="M398.843,22.604c-2.001-4.245-6.272-6.952-10.966-6.952H12.123c-4.692,0-8.963,2.708-10.966,6.952
	c-2.001,4.245-1.374,9.262,1.612,12.883l144.445,175.195v161.545c0,4.195,2.168,8.09,5.73,10.303c1.953,1.209,4.169,1.82,6.393,1.82
	c1.838,0,3.682-0.418,5.382-1.261l81.157-40.225c4.124-2.044,6.731-6.244,6.739-10.847l0.158-121.332L397.226,35.485
	C400.215,31.866,400.844,26.847,398.843,22.604z M231.305,198.615c-1.785,2.167-2.766,4.886-2.769,7.695l-0.155,118.166
	l-56.919,28.211V206.326c0-2.813-0.978-5.541-2.769-7.711L37.831,39.896h324.337L231.305,198.615z"/>
</svg>
